<svg xmlns="http://www.w3.org/2000/svg" viewBox="0 0 346.99 357.33"><defs><style>.cls-1{fill:#fff;}.cls-2{fill:#1e1a17;}.cls-3{fill:#c70a70;}</style></defs><g id="Layer_2" data-name="Layer 2"><g id="Layer_1-2" data-name="Layer 1"><path class="cls-1" d="M56.68,105.54S75.36,107.29,87,106.7c0,0,30.36,31.53-47.3,41.46L38,310.62s7,30.94,35,29.77c0,0,30.36,2.34,32.12-38.53l15.76-.59s7.59,50.8-46.71,56.05c0,0-50.79,1.76-53.13-51.37l-.58-153.71S-9.3,152.24,3,106.7c0,0,10.51,2.92,16.93-6.42,0,0,5.26-7-16.93-9.93,0,0,7-54.88,94.59-80.57,0,0,84.07-22.77,150.05,1.17,0,0,86.41,26.27,93.41,79.4,0,0-3.5,7.6-16.34,7,0,0-7,11.09,15.76,7.59,0,0,18.68,31-7,47.29,0,0-64.8-4.67-81.74-25.1,0,0-4.08-14.6,7-22.19,0,0,10.51,5.26,29.19,1.75,0,0,15.77-12.84-33.86-14.59,0,0-37.37-47.3-85.24-39.71,0,0-59.56-6.42-81.16,40.29C87.62,92.69,45.58,92.69,56.68,105.54Z"/><polygon class="cls-2" points="101.09 118.65 96.92 113.2 123.14 93.15 145.1 110.39 140.86 115.79 123.09 101.83 101.09 118.65"/><polygon class="cls-2" points="246.1 119.12 224.1 102.3 206.33 116.26 202.09 110.87 224.04 93.62 250.26 113.67 246.1 119.12"/><path class="cls-2" d="M172.77,116.87s-22.23,1.18-21,18.92c0,0,2.6,14.65,19.14,20.8l.95,13.47s-3.55,6.15-8,7.81c0,0-33.8,5.67-48.93-8,0,0-25.3,1.65,28.6,59.1,0,0,12.29-11.35-1.18-43h63.12s-12.77,31.45-.71,41.61c0,0,52.72-54.61,25.53-57.45,0,0-28.13,19.39-52,.71l-.71-14.65s17.73-.24,21.28-22.46C198.77,133.66,188.84,113.8,172.77,116.87Z"/><path class="cls-3" d="M142.27,185.9s13.59,29.91,1.18,43c0,0,5.14,39.36,25.36,45.75,0,0,35.22,8,35.87-47.17,0,0-12.71-7.86.71-41.61Z"/><path class="cls-2" d="M112.9,109l-2-6.55a48.35,48.35,0,0,1,22.43-.71l-1.43,6.71A42.32,42.32,0,0,0,112.9,109Z"/><path class="cls-2" d="M214.64,109.4l-2-6.55a48.35,48.35,0,0,1,22.43-.71l-1.43,6.71A42.31,42.31,0,0,0,214.64,109.4Z"/></g></g></svg>